<svg xmlns="http://www.w3.org/2000/svg" width="512" height="512" viewBox="0 0 512 512"><g><path d="M496,416H448V188.32a80,80,0,1,0-48,0V416H328V400h40a8,8,0,0,0,8-8V368a8,8,0,0,0-8-8h-8.4a20.248,20.248,0,0,0,.4-4V220a20.02,20.02,0,0,0-20-20H279.6a20.248,20.248,0,0,0,.4-4V60a20.02,20.02,0,0,0-20-20H124a20.02,20.02,0,0,0-20,20V196a20.248,20.248,0,0,0,.4,4H44a20.02,20.02,0,0,0-20,20V356a20.248,20.248,0,0,0,.4,4H16a8,8,0,0,0-8,8v24a8,8,0,0,0,8,8H56v16H16a8,8,0,0,0-8,8v24a8,8,0,0,0,8,8h8v24a8,8,0,0,0,8,8H80a8,8,0,0,0,8-8V456H424v24a8,8,0,0,0,8,8h48a8,8,0,0,0,8-8V456h8a8,8,0,0,0,8-8V424A8,8,0,0,0,496,416ZM360,112a64,64,0,1,1,64,64A64.072,64.072,0,0,1,360,112Zm72,80V416H416V192ZM304,296a7.983,7.983,0,0,0,8-8V216h28a4,4,0,0,1,4,4V356a4,4,0,0,1-4,4H204a4,4,0,0,1-4-4V220a4,4,0,0,1,4-4h28v72a8,8,0,0,0,11.58,7.16L272,280.94l28.42,14.22A8.073,8.073,0,0,0,304,296Zm-8-80v59.06l-20.42-10.22a8.049,8.049,0,0,0-7.16,0L248,275.06V216ZM168,56h48v59.06l-20.42-10.22a8.049,8.049,0,0,0-7.16,0L168,115.06Zm-48,4a4,4,0,0,1,4-4h28v72a8,8,0,0,0,11.58,7.16L192,120.94l28.42,14.22A8,8,0,0,0,232,128V56h28a4,4,0,0,1,4,4V196a4,4,0,0,1-4,4H124a4,4,0,0,1-4-4ZM88,216h48v59.06l-20.42-10.22a8.049,8.049,0,0,0-7.16,0L88,275.06Zm-48,4a4,4,0,0,1,4-4H72v72a8,8,0,0,0,11.58,7.16L112,280.94l28.42,14.22A8,8,0,0,0,152,288V216h28a4,4,0,0,1,4,4V356a4,4,0,0,1-4,4H44a4,4,0,0,1-4-4ZM24,384v-8H360v8Zm288,16v16H72V400ZM72,472H40V456H72Zm400,0H440V456h32Zm16-32H24v-8H488Z"/><path d="M480,112a56,56,0,1,0-56,56A56.063,56.063,0,0,0,480,112Zm-96,0a40,40,0,1,1,40,40A40.045,40.045,0,0,1,384,112Z"/><path d="M432,112V88a8,8,0,0,0-16,0v24a8,8,0,0,0,16,0Z"/></g></svg>
